<?xml version="1.0" standalone="no"?>
<!DOCTYPE svg PUBLIC "-//W3C//DTD SVG 20010904//EN"
 "http://www.w3.org/TR/2001/REC-SVG-20010904/DTD/svg10.dtd">
<svg version="1.0" xmlns="http://www.w3.org/2000/svg"
 width="81.000000pt" height="100.000000pt" viewBox="0 0 81.000000 100.000000"
 preserveAspectRatio="xMidYMid meet">
<metadata>
Created by potrace 1.16, written by Peter Selinger 2001-2019
</metadata>
<g transform="translate(0.000000,100.000000) scale(0.100000,-0.100000)"
fill="#000000" stroke="none">
<path d="M0 656 c0 -291 2 -345 14 -349 11 -5 17 5 22 39 3 25 4 48 0 51 -3 4
-6 -9 -6 -27 0 -18 -3 -31 -6 -27 -9 9 7 128 16 122 4 -3 6 5 2 17 -4 16 -2
19 8 13 9 -5 11 -4 6 4 -9 15 3 53 15 46 5 -3 6 2 2 11 -5 13 -3 15 7 9 8 -5
11 -4 6 3 -12 19 56 112 82 112 12 0 22 5 22 11 0 5 4 8 9 5 5 -4 7 4 3 16 -3
14 -1 19 6 14 8 -4 10 -2 6 8 -8 22 40 98 97 151 27 26 82 62 122 80 l72 34
-252 1 -253 0 0 -344z"/>
<path d="M510 990 c0 -3 -20 -13 -45 -24 -25 -10 -61 -29 -79 -41 -19 -13 -37
-20 -41 -17 -4 4 -5 3 -3 -3 4 -12 -42 -60 -57 -60 -5 0 -10 -9 -10 -20 0 -11
-6 -19 -13 -17 -8 1 -11 -2 -8 -7 3 -5 -3 -30 -14 -55 -19 -45 -38 -146 -27
-146 3 0 20 32 38 71 35 76 122 168 177 187 l30 10 4 -52 c6 -70 37 -130 69
-134 45 -4 50 8 29 77 -22 69 -26 141 -9 141 7 0 9 -13 5 -37 -5 -29 -4 -34 4
-23 9 12 11 8 8 -17 -3 -19 0 -30 5 -26 6 4 8 -3 5 -15 -4 -14 -2 -20 5 -15 6
4 8 -2 5 -15 -4 -12 -2 -20 2 -17 12 7 23 -32 14 -46 -4 -7 -3 -9 4 -5 13 8
26 -29 16 -45 -5 -8 -3 -9 6 -4 10 6 12 3 8 -13 -4 -12 -2 -20 3 -16 5 3 9 -1
9 -9 0 -18 27 -18 34 0 3 7 17 13 32 13 24 0 26 -3 22 -35 -2 -19 -2 -32 1
-30 8 8 32 -35 26 -45 -4 -6 -1 -9 7 -8 7 2 12 -5 12 -14 -1 -10 3 -15 9 -11
6 4 8 0 4 -11 -4 -10 -3 -15 3 -11 6 4 10 111 10 281 l0 275 -115 -2 c-63 -1
-112 -5 -109 -10 3 -5 1 -16 -4 -25 -6 -11 -11 -13 -16 -5 -4 6 -3 11 3 11 6
0 8 7 5 15 -5 13 -64 18 -64 5z m60 -66 c0 -8 -4 -12 -10 -9 -5 3 -10 13 -10
21 0 8 5 12 10 9 6 -3 10 -13 10 -21z"/>
<path d="M142 620 c-11 -17 -10 -20 7 -20 14 0 18 5 14 20 -3 11 -6 20 -7 20
-1 0 -7 -9 -14 -20z"/>
<path d="M796 287 c3 -10 9 -15 12 -12 3 3 0 11 -7 18 -10 9 -11 8 -5 -6z"/>
<path d="M1 113 l-1 -113 138 1 137 0 -60 19 c-64 20 -150 84 -139 102 4 6 2
8 -3 5 -14 -9 -46 40 -37 55 5 7 3 8 -6 3 -10 -6 -12 -4 -7 9 4 9 3 15 -2 11
-5 -3 -12 1 -14 7 -3 7 -6 -38 -6 -99z"/>
<path d="M780 164 c-33 -52 -144 -130 -208 -145 -4 -1 -11 -3 -17 -5 -5 -1
-19 -5 -30 -7 -11 -3 49 -5 133 -6 l152 -1 0 100 c0 55 -2 100 -4 100 -2 0
-14 -16 -26 -36z"/>
</g>
</svg>
