<?xml version="1.0" encoding="UTF-8" standalone="no" ?>
<!DOCTYPE svg PUBLIC "-//W3C//DTD SVG 1.1//EN" "http://www.w3.org/Graphics/SVG/1.1/DTD/svg11.dtd">
<svg xmlns="http://www.w3.org/2000/svg" xmlns:xlink="http://www.w3.org/1999/xlink" version="1.1" width="350" height="350" viewBox="0 0 350 350" xml:space="preserve">
<desc>Created with Fabric.js 1.7.22</desc>
<defs>
</defs>
<g id="icon" style="stroke: none; stroke-width: 1; stroke-dasharray: none; stroke-linecap: butt; stroke-linejoin: miter; stroke-miterlimit: 10; fill: none; fill-rule: nonzero; opacity: 1;" transform="translate(-1.9444444444444287 -1.9444444444444287) scale(3.89 3.89)" >
	<path d="M 88.157 35.458 h -2.293 c -1.952 0 -3.735 -1.203 -4.372 -3.047 c -0.512 -1.482 -1.112 -2.923 -1.794 -4.317 c -0.853 -1.745 -0.451 -3.846 0.922 -5.219 l 1.644 -1.644 c 0.72 -0.72 0.72 -1.887 0 -2.607 L 71.376 7.736 c -0.36 -0.36 -0.832 -0.54 -1.303 -0.54 c -0.472 0 -0.944 0.18 -1.304 0.54 L 67.125 9.38 c -0.887 0.887 -2.078 1.369 -3.28 1.369 c -0.659 0 -1.321 -0.145 -1.939 -0.447 C 60.513 9.62 59.072 9.02 57.59 8.508 c -1.845 -0.637 -3.047 -2.42 -3.047 -4.372 V 1.843 C 54.542 0.825 53.717 0 52.699 0 H 37.301 c -1.018 0 -1.843 0.825 -1.843 1.843 v 2.293 c 0 1.952 -1.203 3.735 -3.047 4.372 c -1.482 0.512 -2.923 1.112 -4.317 1.794 c -0.618 0.302 -1.28 0.447 -1.939 0.447 c -1.202 0 -2.393 -0.482 -3.28 -1.369 l -1.644 -1.644 c -0.36 -0.36 -0.832 -0.54 -1.303 -0.54 s -0.943 0.18 -1.303 0.54 L 7.736 18.624 c -0.72 0.72 -0.72 1.887 0 2.607 l 1.644 1.644 c 1.373 1.373 1.775 3.474 0.922 5.219 C 9.62 29.487 9.02 30.928 8.508 32.41 c -0.637 1.845 -2.42 3.047 -4.372 3.047 H 1.843 C 0.825 35.458 0 36.283 0 37.301 v 15.398 c 0 1.018 0.825 1.843 1.843 1.843 h 2.293 c 1.952 0 3.735 1.203 4.372 3.047 c 0.512 1.482 1.112 2.923 1.794 4.317 c 0.853 1.745 0.451 3.846 -0.922 5.219 l -1.644 1.644 c -0.72 0.72 -0.72 1.887 0 2.607 l 10.888 10.888 c 0.36 0.36 0.832 0.54 1.303 0.54 s 0.943 -0.18 1.303 -0.54 l 1.644 -1.644 c 0.887 -0.887 2.078 -1.369 3.28 -1.369 c 0.659 0 1.321 0.145 1.939 0.447 c 1.394 0.681 2.835 1.282 4.317 1.794 c 1.845 0.637 3.047 2.42 3.047 4.372 v 2.293 c 0 1.018 0.825 1.843 1.843 1.843 h 15.398 c 1.018 0 1.843 -0.825 1.843 -1.843 v -2.293 c 0 -1.952 1.203 -3.735 3.047 -4.372 c 1.482 -0.512 2.923 -1.112 4.317 -1.794 c 0.618 -0.302 1.28 -0.447 1.939 -0.447 c 1.202 0 2.392 0.481 3.28 1.369 l 1.644 1.644 c 0.36 0.36 0.832 0.54 1.303 0.54 c 0.472 0 0.943 -0.18 1.303 -0.54 l 10.888 -10.888 c 0.72 -0.72 0.72 -1.887 0 -2.607 l -1.643 -1.643 c -1.373 -1.373 -1.775 -3.474 -0.922 -5.219 c 0.681 -1.394 1.282 -2.835 1.794 -4.317 c 0.637 -1.845 2.42 -3.047 4.372 -3.047 h 2.293 c 1.018 0 1.843 -0.825 1.843 -1.843 V 37.301 C 90 36.283 89.175 35.458 88.157 35.458 z M 63.441 46.501 c -0.707 8.967 -7.972 16.233 -16.939 16.94 C 45.997 63.48 45.496 63.5 45 63.5 c -10.714 0 -19.3 -9.107 -18.441 -20.001 c 0.707 -8.967 7.972 -16.232 16.939 -16.939 C 44.003 26.52 44.504 26.5 45 26.5 C 55.713 26.5 64.3 35.606 63.441 46.501 z" style="stroke: none; stroke-width: 1; stroke-dasharray: none; stroke-linecap: butt; stroke-linejoin: miter; stroke-miterlimit: 10; fill: rgb(0,0,0); fill-rule: nonzero; opacity: 1;" transform=" matrix(1 0 0 1 0 0) " stroke-linecap="round" />
</g>
</svg>